HIERARCHY
ROOT Hips
{
  OFFSET 0 0 0
  CHANNELS 6 Xposition Yposition Zposition Zrotation Yrotation Xrotation
  JOINT LeftThigh
  {
    OFFSET 8.409438 0 -5.917753
    CHANNELS 3 Zrotation Yrotation Xrotation
    JOINT LeftLeg
    {
      OFFSET 0 0 -42.358652
      CHANNELS 3 Zrotation Yrotation Xrotation
      JOINT LeftFoot
      {
        OFFSET 0 0 -39.357303
        CHANNELS 3 Zrotation Yrotation Xrotation
      }
    }
  }
  JOINT RightThigh
  {
    OFFSET -8.409438 0 -5.917753
    CHANNELS 3 Zrotation Yrotation Xrotation
    JOINT RightLeg
    {
      OFFSET 0 0 -42.358652
      CHANNELS 3 Zrotation Yrotation Xrotation
      JOINT RightFoot
      {
        OFFSET 0 0 -39.357303
        CHANNELS 3 Zrotation Yrotation Xrotation
      }
    }
  }
  JOINT SpineLow
  {
    OFFSET 0 0 4.719101
    CHANNELS 3 Zrotation Yrotation Xrotation
    JOINT SpineMid
    {
      OFFSET 0 0 12.899191
      CHANNELS 3 Zrotation Yrotation Xrotation
      JOINT Chest
      {
        OFFSET 0 0 12.899191
        CHANNELS 3 Zrotation Yrotation Xrotation
        JOINT LeftShoulder
        {
          OFFSET 7.550562 1.41573 9.438202
          CHANNELS 3 Zrotation Yrotation Xrotation
          JOINT LeftArm
          {
            OFFSET 9.155056 0 4.247191
            CHANNELS 3 Zrotation Yrotation Xrotation
            JOINT LeftForearm
            {
              OFFSET 0 0 25.771955
              CHANNELS 3 Zrotation Yrotation Xrotation
              JOINT LeftHand
              {
                OFFSET 0 0 25.197169
                CHANNELS 3 Zrotation Yrotation Xrotation
              }
            }
          }
        }
        JOINT RightShoulder
        {
          OFFSET -7.550562 1.41573 9.438202
          CHANNELS 3 Zrotation Yrotation Xrotation
          JOINT RightArm
          {
            OFFSET -9.155056 0 4.247191
            CHANNELS 3 Zrotation Yrotation Xrotation
            JOINT RightForearm
            {
              OFFSET 0 0 -25.771955
              CHANNELS 3 Zrotation Yrotation Xrotation
              JOINT RightHand
              {
                OFFSET 0 0 -25.197169
                CHANNELS 3 Zrotation Yrotation Xrotation
              }
            }
          }
        }
        JOINT Neck
        {
          OFFSET 0 0 15.101124
          CHANNELS 3 Zrotation Yrotation Xrotation
          JOINT Head
          {
            OFFSET 0 0 11.325843
            CHANNELS 3 Zrotation Yrotation Xrotation
            End Site
            {
              OFFSET 0 0 14.157303
            }
          }
        }
      }
    }
  }
}
MOTION
Frames: 14
Frame Time: 0.0
0.0  101.685394  0.0  0.915583  29.821798  -97.987067  4.905569  -18.87125  3.101147  -19.144014  8.850048  17.158332  -5.536649  0.213532  -0.202854  -22.614263  15.678911  -0.558845  -17.567167  8.547922  15.838796  16.896219  3.398848  -1.766123  -0.680378  0.505237  1.910626  -1.818772  1.43363  5.208564  -1.818772  1.43363  5.208564  6.628386  20.262422  7.232567  150.571724  37.291006  -158.5421  -12.573405  -41.611194  116.826938  94.244673  -3.855726  -32.063188  25.156836  -9.433607  22.648657  89.386179  56.433225  10.696301  -83.65236  58.924477  -98.341104  85.763465  8.872274  36.400763  -5.892268  -1.60677  -4.091111  -4.429903  -1.165824  -3.083966  
0.0  101.685394  0.0  1.015051  30.578012  -97.837654  4.151888  -18.826189  2.726129  -18.641079  8.964838  17.266489  -5.664144  0.229559  -0.172387  -24.057414  15.926129  -0.782634  -18.956314  8.643781  15.434985  18.53815  3.63581  -1.558309  -0.704953  0.528436  1.913176  -1.88404  1.498996  5.214381  -1.88404  1.498997  5.214381  6.342058  20.224577  6.986432  150.533367  37.443541  -158.548896  -12.473993  -41.432371  116.793415  94.090552  -3.936215  -31.912549  25.110942  -9.541693  22.70845  88.660671  56.180776  9.647859  -85.5314  59.959436  -99.398424  84.781089  9.299149  36.270434  -6.117334  -1.622973  -4.13376  -4.598922  -1.176057  -3.116732  
0.0  101.685394  0.0  1.070528  30.922477  -97.816817  4.104543  -18.957692  2.758657  -18.651775  9.077184  17.034397  -5.633226  0.299183  -0.134238  -25.172995  16.162215  -0.957635  -18.701196  8.607315  15.442012  18.82782  3.720944  -1.521018  -0.699603  0.53908  1.920341  -1.868422  1.527846  5.233815  -1.868422  1.527846  5.233815  6.385617  20.211967  6.884255  150.431237  37.531394  -158.542307  -12.305936  -41.179989  116.746078  93.921752  -4.062916  -31.760869  25.147154  -9.60763  22.840747  88.160389  55.926062  8.773039  -86.177919  60.015074  -99.821069  84.86462  9.175133  36.332753  -6.119919  -1.623222  -4.090768  -4.600743  -1.176655  -3.084496  
0.0  101.685394  0.0  1.17308  31.279805  -97.719453  3.898726  -18.981269  2.632554  -19.594274  9.26967  16.157974  -4.655156  0.63889  0.483074  -27.219687  16.369643  -1.710463  -17.434175  8.596055  15.711854  19.077225  3.829282  -1.50126  -0.695704  0.562819  1.925523  -1.855785  1.592517  5.247463  -1.855785  1.592517  5.247463  6.270962  20.040477  6.63217  150.445295  37.562339  -158.616458  -12.150907  -40.805993  116.703588  93.779958  -4.141526  -31.709542  25.216641  -9.745811  22.90215  87.69192  55.685166  8.016435  -86.849944  60.152126  -100.16071  84.913466  9.044123  36.20607  -6.248977  -1.630146  -4.076916  -4.69754  -1.181133  -3.074533  
0.0  101.685394  0.0  1.212848  31.403757  -97.696599  3.938604  -19.130071  2.565245  -19.711381  9.462872  16.098254  -4.408336  0.736439  0.542746  -27.899639  16.493386  -1.875493  -16.837113  8.497935  15.863615  19.011154  4.021557  -1.487936  -0.670422  0.573652  1.924828  -1.785883  1.620083  5.245921  -1.785883  1.620083  5.24592  6.278041  19.942308  6.580072  150.419869  37.55031  -158.682469  -12.002214  -40.59825  116.651726  93.716118  -4.131373  -31.785117  25.242479  -9.858487  23.019972  87.416248  55.447186  7.361155  -87.120135  60.129709  -100.194803  85.048515  8.901779  36.082791  -6.240794  -1.63699  -3.991937  -4.691208  -1.187186  -3.010842  
0.0  101.685394  0.0  1.31661  31.6208  -97.593666  3.699104  -19.167151  2.326893  -20.629497  9.818842  15.45121  -3.420206  0.986537  1.10983  -29.657744  16.574533  -2.711893  -15.722511  8.432457  16.273562  19.36881  4.435484  -1.436638  -0.661919  0.595395  1.941164  -1.760523  1.679222  5.290268  -1.760523  1.679222  5.290269  6.05418  19.781449  6.36786  150.561257  37.555718  -158.744317  -11.949903  -40.381084  116.604586  93.718624  -4.057277  -31.938167  25.323319  -9.955766  22.957342  87.194516  55.23703  6.804855  -87.327719  60.151139  -100.145318  85.091578  8.897386  35.90255  -6.347621  -1.649163  -4.016723  -4.771471  -1.195367  -3.029854  
0.0  101.685394  0.0  1.376612  31.697641  -97.550848  3.571006  -19.286637  2.138866  -20.53357  10.075613  15.623721  -3.225414  1.085061  1.230854  -29.869855  16.586056  -2.857237  -15.257261  8.421785  16.57429  19.033909  4.704062  -1.458701  -0.636823  0.604583  1.952841  -1.690926  1.702605  5.32263  -1.690926  1.702606  5.32263  5.934838  19.732019  6.321687  150.52053  37.548246  -158.859733  -11.962931  -40.375044  116.520333  93.733816  -3.949773  -32.117135  25.289811  -9.994484  22.95474  87.146575  55.039846  6.311647  -87.504556  60.208328  -100.076029  85.092115  8.870768  35.8925  -6.363702  -1.670389  -3.988922  -4.783583  -1.211474  -3.009264  
0.0  101.685394  0.0  1.439806  31.855223  -97.511722  2.406628  -19.039266  1.353649  -20.187891  10.374868  16.079326  -2.43319  1.378132  1.844499  -30.64206  16.550068  -3.343478  -14.35068  8.508596  17.109062  18.679009  4.98027  -1.532404  -0.625619  0.615288  1.959393  -1.65929  1.731104  5.340596  -1.65929  1.731104  5.340596  5.735866  19.616991  6.335286  150.629988  37.556994  -158.954247  -12.04543  -40.321258  116.496258  93.740957  -3.84469  -32.245649  25.252065  -10.079283  22.947434  87.152138  54.862098  5.91298  -87.740396  60.355191  -100.053916  84.898056  8.886625  35.899232  -6.516286  -1.6771  -3.972834  -4.898014  -1.21569  -2.997703  
0.0  101.685394  0.0  1.478031  31.974215  -97.488697  2.030857  -19.135708  1.045998  -19.814744  10.657374  16.569186  -2.407  1.477735  1.958912  -30.575792  16.515755  -3.455777  -14.257388  8.646815  17.488258  18.432875  5.235071  -1.563911  -0.617791  0.620753  1.95918  -1.637474  1.745392  5.340101  -1.637474  1.745392  5.340101  5.628363  19.613292  6.508337  150.63905  37.652623  -159.031923  -12.189846  -40.327549  116.444618  93.702586  -3.791133  -32.288808  25.218319  -10.130777  23.00398  87.232962  54.760846  5.558799  -87.987555  60.526882  -100.026911  84.84732  8.791771  36.1124  -6.553942  -1.71118  -3.925378  -4.926323  -1.24152  -2.962574  
0.0  101.685394  0.0  1.492475  32.216184  -97.422416  1.349969  -19.15542  0.554915  -19.45717  10.939491  17.159384  -2.288607  1.590463  2.114051  -30.813149  16.43943  -3.759955  -14.171729  8.81064  17.980722  18.288705  5.552196  -1.625819  -0.619982  0.622659  1.95571  -1.643399  1.750692  5.330514  -1.643399  1.750692  5.330515  5.428367  19.596938  6.669725  150.801076  37.864453  -159.10928  -12.341762  -40.128764  116.498468  93.652891  -3.785627  -32.227669  25.114379  -10.191481  23.004111  85.067998  55.760578  4.693767  -85.417229  59.486867  -98.299586  84.66512  8.769263  36.245892  -6.72939  -1.7475  -3.924054  -5.05812  -1.267662  -2.962485  
0.0  101.685394  0.0  1.486571  32.493294  -97.40882  0.673995  -19.196132  0.139331  -19.198273  11.261243  17.83608  -2.145878  1.698361  2.218883  -30.715431  16.410281  -3.89615  -14.251029  8.976844  18.480635  18.051043  5.823057  -1.676684  -0.642542  0.62405  1.961787  -1.704756  1.756458  5.346487  -1.704756  1.756458  5.346487  5.317217  19.644723  6.861015  150.839351  38.107252  -159.183754  -12.489369  -40.045465  116.457404  93.606192  -3.799462  -32.134256  25.1075  -10.227764  23.008454  85.129481  55.798974  4.40539  -85.641634  59.719109  -98.273798  84.692637  8.636272  36.424068  -6.796252  -1.802398  -3.931512  -5.108616  -1.308335  -2.968875  
0.0  101.685394  0.0  1.443102  32.851359  -97.411273  -0.178825  -19.227689  -0.409381  -19.083553  11.65615  18.596252  -1.829625  1.829629  2.343475  -30.969965  16.395041  -4.215851  -14.014334  9.069467  19.162287  17.810214  6.175293  -1.768795  -0.65948  0.618212  1.987147  -1.750816  1.742537  5.415496  -1.750816  1.742536  5.415496  5.098873  19.700357  6.978624  151.024184  38.570751  -159.265042  -12.56794  -39.75005  116.485387  93.586824  -3.837409  -32.092882  24.964324  -10.229669  22.863736  85.1722  55.847488  4.144431  -85.924031  60.049387  -98.355138  84.569546  8.51511  36.438848  -6.965461  -1.866902  -4.021381  -5.236188  -1.354623  -3.037521  
0.0  101.685394  0.0  1.376399  33.308316  -97.445581  -1.062957  -19.275533  -0.937626  -19.081758  12.131445  19.430305  -1.47147  1.951163  2.419862  -30.841766  16.307331  -4.350324  -14.189518  9.297682  19.770492  17.473692  6.455307  -1.843794  -0.702566  0.612003  2.014883  -1.868282  1.729867  5.490316  -1.868282  1.729867  5.490316  4.970063  19.749878  7.111455  150.954575  38.941094  -159.360625  -12.601879  -39.701282  116.324865  93.658349  -3.890232  -32.149153  24.921458  -10.22066  22.747544  85.079542  55.955516  3.809964  -86.086674  60.209995  -98.465939  84.579406  8.282008  36.340473  -7.084808  -1.941217  -4.112572  -5.326448  -1.408539  -3.10714  
0.0  101.685394  0.0  1.264615  33.850465  -97.495453  -1.965522  -19.427256  -1.567836  -19.280829  12.764318  20.242293  -0.954981  2.107299  2.547256  -30.853643  16.155561  -4.571264  -14.185712  9.565104  20.504516  17.058419  6.731898  -1.967246  -0.74298  0.592796  2.047427  -1.979413  1.681716  5.578721  -1.979413  1.681716  5.578722  4.777193  19.825366  7.23845  151.053285  39.549949  -159.463138  -12.524496  -39.432082  116.207721  93.806084  -3.946038  -32.324021  24.747267  -10.153642  22.579116  84.923008  56.047937  3.426987  -86.279901  60.39358  -98.662023  84.561849  8.09062  36.067952  -7.305741  -2.010573  -4.23469  -5.49299  -1.45764  -3.200277  
